<?xml version="1.0" encoding="UTF-8"?>
<svg id="Layer_2" data-name="Layer 2" xmlns="http://www.w3.org/2000/svg" xmlns:xlink="http://www.w3.org/1999/xlink" viewBox="0 0 583.19 749.72">
  <defs>
    <style>
      .cls-1 {
        fill: #50b848;
      }

      .cls-2 {
        fill: #753191;
      }

      .cls-3 {
        stroke: #50b848;
        stroke-width: 30px;
      }

      .cls-3, .cls-4, .cls-5, .cls-6 {
        fill: none;
      }

      .cls-3, .cls-4, .cls-6 {
        stroke-miterlimit: 10;
      }

      .cls-4 {
        stroke: #752f92;
        stroke-width: 16px;
      }

      .cls-7 {
        clip-path: url(#clippath);
      }

      .cls-6 {
        stroke: #070808;
        stroke-width: .25px;
      }
    </style>
    <clipPath id="clippath">
      <path class="cls-5" d="m154.23,204.4v283.24h220.62V204.4h-220.62Zm70.37,36c-3.66-6.8-6.95-10.77-9.08-12.25l-.45-.33c-3.6-2.85-8.33-4.41-13.34-4.41-.73,0-1.46.04-2.18.1,3-5.9,5.83-11.76,8.5-17.59,6.67,1.03,12.89,3.65,17.98,7.62,2.67,1.89,5.31,4.55,7.88,7.93-2.93,6.27-6.02,12.58-9.31,18.93Zm86.72,222.97c-5.63,3.47-11.99,5.78-18.54,6.71-.33.05-.66.08-.98.12l-.54-.1c-2.95-1.45-6.38-3.11-9.93-4.67v-19.4c7.34,2.71,14.34,6.16,20.03,8.98,3.11,1.54,7.82,3.87,9.05,4.17l.84.16.08.02v4.01Zm0-114.95c-6.97,3.83-14.88,5.77-23.64,5.77h0c-2.08,0-4.2-.11-6.36-.34v-18.12c2.17.3,4.27.47,6.29.47,8.78,0,16.08-2.91,21.69-8.64l.15-.22c.53-.79,1.16-1.72,1.87-2.71v23.79Z"/>
    </clipPath>
  </defs>
  <g id="Layer_1-2" data-name="Layer 1">
    <rect class="cls-1" x=".05" y=".36" width="28.35" height="748.79"/>
    <g>
      <path class="cls-4" d="m161.29,477.64c19.1-15.63,39.37-45.28,55.67-77.51,16.31-32.22,28.66-67.02,31.94-92.94,2.13-10.88-.94-29.73-6.55-47.24s-13.74-33.68-21.73-39.2c-8.75-6.94-21.08-7.92-30.2-4.27s-15.01,11.91-10.9,23.45c.57,1.61,6.88,14.26,14.11,27.91s15.37,28.29,19.62,33.85c8.94,13.37,27.47,28.96,47.38,37.36s41.21,9.6,55.68-5.82c1.2-1.74,3.65-5.61,6.09-7.88s4.84-2.92,5.95,1.75c1.02,2.08,2.06,4.32,3.1,6.74s2.08,4.99,3.09,7.73c0,0,.83,2.25,1.93,5.67s2.47,8,3.55,12.66c5.31,22.89,4.67,42.22,2.7,55.82s-5.27,21.49-5.27,21.49c-2.55,6.11-5.4,12.92-9.56,19.2s-9.59,12.07-17.38,16.03c-14.21,7.22-30.46,5.74-41.61,0-11.7-4.78-19.56-11.72-19.56-11.72-9.71-7.26,3.37-12.51,19.2-9.14,15.84,3.37,34.43,15.34,40.06,16.41,9.82,4.3,20.44,6.98,31.24,8.39,10.81,1.41,21.8,1.56,32.39.78"/>
      <path class="cls-3" d="m266.47.39c.91,35.21-.73,136.39-63.06,247.73-63.46,113.34-151,167.92-181.42,185.19"/>
      <path class="cls-3" d="m268.25,748.66c-.1-7.91-.36-21.27-1.13-37.8-3.78-80.73-7.41-145.31-40.06-215.06-2.73-5.83-10.89-22.85-24.19-43.7-29.4-46.09-62.55-77.37-86.07-96.55"/>
      <path class="cls-3" d="m296.32,15v719.72c150.15,0,271.87-161.11,271.87-359.86S446.47,15,296.32,15Z"/>
      <g class="cls-7">
        <path class="cls-4" d="m161.29,477.64c19.1-15.63,39.37-45.28,55.67-77.51,16.31-32.22,28.66-67.02,31.94-92.94,2.13-10.88-.94-29.73-6.55-47.24s-13.74-33.68-21.73-39.2c-8.75-6.94-21.08-7.92-30.2-4.27s-15.01,11.91-10.9,23.45c.57,1.61,6.88,14.26,14.11,27.91s15.37,28.29,19.62,33.85c8.94,13.37,27.47,28.96,47.38,37.36s41.21,9.6,55.68-5.82c1.2-1.74,3.65-5.61,6.09-7.88s4.84-2.92,5.95,1.75c1.02,2.08,2.06,4.32,3.1,6.74s2.08,4.99,3.09,7.73c0,0,.83,2.25,1.93,5.67s2.47,8,3.55,12.66c5.31,22.89,4.67,42.22,2.7,55.82s-5.27,21.49-5.27,21.49c-2.55,6.11-5.4,12.92-9.56,19.2s-9.59,12.07-17.38,16.03c-14.21,7.22-30.46,5.74-41.61,0-11.7-4.78-19.56-11.72-19.56-11.72-9.71-7.26,3.37-12.51,19.2-9.14,15.84,3.37,34.43,15.34,40.06,16.41,9.82,4.3,20.44,6.98,31.24,8.39,10.81,1.41,21.8,1.56,32.39.78"/>
      </g>
    </g>
    <path class="cls-6" d="m291.67,469.15c.87-.04.57-.05.52-.04.05.12,7.27-1.47,9.1-2.08,2.11-.71,4-1.52,5.67-2.35s3.13-1.69,4.36-2.48"/>
    <polygon id="shadow3" class="cls-2" points="311.41 462.3 311.32 462.18 311.32 462.37 311.41 462.3"/>
    <polygon id="shaodw2" class="cls-2" points="318.99 341.8 317.49 343.1 314.98 344.97 313.42 345.98 312.4 346.64 311.32 347.3 311.32 326.37 312.04 325.35 313 324.02 313.95 322.8 315.01 321.52 315.94 320.52 318.99 341.8"/>
    <polygon id="shadow1" class="cls-2" points="229.94 249.35 229.29 247.82 228.42 245.87 227.32 243.54 225.88 240.66 225.16 239.3 233.42 222.5 234.66 224.22 236.96 227.76 237.78 229.13 238.18 229.89 238.42 230.22 229.94 249.35"/>
  </g>
</svg>