<?xml version="1.0" encoding="UTF-8"?>
<svg id="Layer_2" data-name="Layer 2" xmlns="http://www.w3.org/2000/svg" viewBox="0 0 597.48 841.02">
  <defs>
    <style>
      .cls-1 {
        fill: #e6e6e6;
      }
    </style>
  </defs>
  <g id="Layer1">
    <path class="cls-1" d="m0,17.19C57.26,7.37,125.33,0,199.88,0c135.05,0,231.21,35.6,294.96,103.13,64.83,67.53,102.64,163.29,102.64,297.12s-36.73,245.55-104.8,321.68c-68.07,77.35-180.43,119.09-321.97,119.09-66.99,0-123.17-3.68-170.71-9.82V17.19Zm94,731.75c23.77,4.91,58.34,6.14,95.08,6.14,200.96,0,310.08-127.69,310.08-351.14,1.08-195.22-96.16-319.22-294.96-319.22-48.62,0-85.35,4.91-110.2,11.05v653.17Z"/>
  </g>
</svg>